<svg xmlns="http://www.w3.org/2000/svg" viewBox="0 0 64 64" width="64" height="64">
  <defs>
    <linearGradient id="cyberGrad" x1="0%" y1="0%" x2="100%" y2="100%">
      <stop offset="0%" stop-color="#00f2fe"/>
      <stop offset="50%" stop-color="#4facfe"/>
      <stop offset="100%" stop-color="#7f00ff"/>
    </linearGradient>
    <linearGradient id="neonGlow" x1="0%" y1="0%" x2="100%" y2="0%">
      <stop offset="0%" stop-color="#00f5a0"/>
      <stop offset="100%" stop-color="#00d2ff"/>
    </linearGradient>
    <filter id="glow" x="-20%" y="-20%" width="140%" height="140%">
      <feGaussianBlur stdDeviation="2" result="blur" />
      <feComposite in="SourceGraphic" in2="blur" operator="over"/>
    </filter>
  </defs>
  
  <polygon points="32,4 58,19 58,45 32,60 6,45 6,19" fill="#0c121e" stroke="url(#cyberGrad)" stroke-width="2.5" />
  
  <polygon points="32,11 51,22 51,42 32,53 13,42 13,22" fill="#111a2e" opacity="0.6" />
  
  <path d="M 23 23 L 15 32 L 23 41" fill="none" stroke="#00f2fe" stroke-width="3" stroke-linecap="round" stroke-linejoin="round" filter="url(#glow)" />
  <path d="M 41 23 L 49 32 L 41 41" fill="none" stroke="#00f5a0" stroke-width="3" stroke-linecap="round" stroke-linejoin="round" filter="url(#glow)" />
  <line x1="36" y1="20" x2="28" y2="44" stroke="url(#cyberGrad)" stroke-width="2.5" stroke-linecap="round" />
  
  <circle cx="32" cy="11" r="2" fill="#00f2fe" />
  <circle cx="51" cy="22" r="2" fill="#7f00ff" />
  <circle cx="51" cy="42" r="2" fill="#00f5a0" />
  <circle cx="32" cy="53" r="2" fill="#00f2fe" />
  <circle cx="13" cy="42" r="2" fill="#7f00ff" />
  <circle cx="13" cy="22" r="2" fill="#00f5a0" />
</svg>
